<svg width="220" height="290" viewBox="0 0 220 290" xmlns="http://www.w3.org/2000/svg">
  <!-- Thruster glow -->
  <ellipse cx="110" cy="268" rx="34" ry="13" fill="#2196F3" opacity="0.4"/>
  <!-- Thruster pod -->
  <ellipse cx="110" cy="250" rx="38" ry="19" fill="#1E88E5"/>
  <ellipse cx="110" cy="261" rx="24" ry="11" fill="#42A5F5"/>
  <!-- Body -->
  <rect x="60" y="143" width="100" height="92" rx="24" fill="white" stroke="#BBDEFB" stroke-width="2.5"/>
  <rect x="68" y="151" width="84" height="76" rx="18" fill="#F0F8FF" stroke="#DDEEFF" stroke-width="1"/>
  <circle cx="110" cy="166" r="15" fill="#E3F2FD" stroke="#90CAF9" stroke-width="2"/>
  <circle cx="110" cy="166" r="9" fill="#2196F3"/>
  <circle cx="110" cy="166" r="5" fill="#64B5F6"/>
  <text x="110" y="216" text-anchor="middle" font-size="32" font-weight="800" fill="#1565C0" font-family="Arial, sans-serif">AI</text>
  <circle cx="60" cy="163" r="7" fill="#90CAF9" stroke="#BBDEFB" stroke-width="1.5"/>
  <circle cx="160" cy="163" r="7" fill="#90CAF9" stroke="#BBDEFB" stroke-width="1.5"/>
  <rect x="93" y="139" width="34" height="12" rx="6" fill="#E3F2FD" stroke="#BBDEFB" stroke-width="1.5"/>
  <!-- Head -->
  <rect x="52" y="52" width="116" height="94" rx="26" fill="white" stroke="#BBDEFB" stroke-width="2.5"/>
  <rect x="62" y="62" width="96" height="74" rx="16" fill="#0D47A1"/>
  <rect x="64" y="64" width="34" height="12" rx="6" fill="white" opacity="0.08"/>
  <!-- Big happy eyes with shine -->
  <circle cx="86" cy="92" r="16" fill="#1565C0" stroke="#1976D2" stroke-width="1"/>
  <circle cx="86" cy="92" r="11" fill="#42A5F5"/>
  <circle cx="86" cy="92" r="6" fill="#90CAF9"/>
  <circle cx="82" cy="88" r="3" fill="white" opacity="0.95"/>
  <circle cx="134" cy="92" r="16" fill="#1565C0" stroke="#1976D2" stroke-width="1"/>
  <circle cx="134" cy="92" r="11" fill="#42A5F5"/>
  <circle cx="134" cy="92" r="6" fill="#90CAF9"/>
  <circle cx="130" cy="88" r="3" fill="white" opacity="0.95"/>
  <!-- Big excited smile -->
  <path d="M76 120 Q110 140 144 120" fill="none" stroke="#64B5F6" stroke-width="3.5" stroke-linecap="round"/>
  <!-- Ear left -->
  <rect x="30" y="78" width="24" height="36" rx="10" fill="#1E88E5" stroke="#90CAF9" stroke-width="1.5"/>
  <rect x="35" y="86" width="9" height="18" rx="4" fill="#42A5F5"/>
  <!-- Ear right -->
  <rect x="166" y="78" width="24" height="36" rx="10" fill="#1E88E5" stroke="#90CAF9" stroke-width="1.5"/>
  <rect x="176" y="86" width="9" height="18" rx="4" fill="#42A5F5"/>
  <!-- LEFT arm raised high -->
  <rect x="22" y="108" width="24" height="52" rx="12" fill="white" stroke="#BBDEFB" stroke-width="2" transform="rotate(40, 34, 134)"/>
  <circle cx="14" cy="110" r="14" fill="white" stroke="#BBDEFB" stroke-width="2"/>
  <line x1="8" y1="104" x2="8" y2="116" stroke="#90CAF9" stroke-width="2.5" stroke-linecap="round"/>
  <line x1="14" y1="101" x2="14" y2="117" stroke="#90CAF9" stroke-width="2.5" stroke-linecap="round"/>
  <line x1="20" y1="104" x2="20" y2="116" stroke="#90CAF9" stroke-width="2.5" stroke-linecap="round"/>
  <!-- RIGHT arm raised high -->
  <rect x="174" y="108" width="24" height="52" rx="12" fill="white" stroke="#BBDEFB" stroke-width="2" transform="rotate(-40, 186, 134)"/>
  <circle cx="206" cy="110" r="14" fill="white" stroke="#BBDEFB" stroke-width="2"/>
  <line x1="200" y1="104" x2="200" y2="116" stroke="#90CAF9" stroke-width="2.5" stroke-linecap="round"/>
  <line x1="206" y1="101" x2="206" y2="117" stroke="#90CAF9" stroke-width="2.5" stroke-linecap="round"/>
  <line x1="212" y1="104" x2="212" y2="116" stroke="#90CAF9" stroke-width="2.5" stroke-linecap="round"/>
  <!-- Stars / sparkles around -->
  <path d="M180 50 L182 44 L184 50 L190 52 L184 54 L182 60 L180 54 L174 52 Z" fill="#64B5F6" opacity="0.8"/>
  <path d="M30 70 L32 65 L34 70 L39 72 L34 74 L32 79 L30 74 L25 72 Z" fill="#90CAF9" opacity="0.7"/>
  <circle cx="190" cy="76" r="4" fill="#42A5F5" opacity="0.7"/>
  <circle cx="22" cy="52" r="3" fill="#42A5F5" opacity="0.7"/>
</svg>
